<svg viewBox="0 0 8 10" fill="none" xmlns="http://www.w3.org/2000/svg">
  <path fill-rule="evenodd" clip-rule="evenodd"
    d="M0 3.99198C0 1.78798 1.78798 0 3.99198 0C6.19598 0 7.98396 1.78798 7.98396 3.99198C7.98396 5.87118 6.16678 8.10659 5.01987 9.51184C4.76302 9.82618 4.39759 10 3.992 10C3.58687 10 3.22098 9.82618 2.96413 9.51184C1.81719 8.10671 0 5.87118 0 3.99198ZM3.99198 2.26333C3.03665 2.26333 2.26239 3.03754 2.26239 3.99198C2.26239 4.94731 3.0366 5.72156 3.99198 5.72156C4.94736 5.72156 5.72156 4.94736 5.72156 3.99198C5.72156 3.03756 4.94736 2.26333 3.99198 2.26333Z"
    fill="#C4C2BE" />
</svg>
