<svg viewBox="0 0 61 80" fill="none" xmlns="http://www.w3.org/2000/svg">
  <path
    d="M38.92 50.67V78.5C38.92 79.11 39.29 79.65 39.85 79.89C40.04 79.97 40.23 80 40.42 80C40.81 80 41.19 79.85 41.48 79.56L59.88 61.16C60.16 60.88 60.32 60.5 60.32 60.1V31.78C60.32 16.41 48.03 3.36 30.44 0.03C30.26 -0.01 30.07 -0.01 29.88 0.03C12.29 3.36 0 16.41 0 31.78V60.1C0 60.5 0.160001 60.88 0.440001 61.16L18.84 79.56C19.27 79.99 19.91 80.12 20.47 79.89C21.03 79.66 21.4 79.11 21.4 78.5V50.67C21.4 50.52 21.38 50.37 21.33 50.22L16.71 35.33L28.1 40.82C28.3 40.92 28.53 40.97 28.75 40.97H31.58C31.81 40.97 32.03 40.92 32.23 40.82L43.62 35.33L39 50.22C38.96 50.36 38.93 50.51 38.93 50.67H38.92Z"
    fill="black" />
</svg>
