<svg viewBox="0 0 69 86" fill="none" xmlns="http://www.w3.org/2000/svg">
  <path fill-rule="evenodd" clip-rule="evenodd"
    d="M0 34.18C0 15.309 15.309 0 34.18 0C53.051 0 68.36 15.309 68.36 34.18C68.36 50.27 52.801 69.41 42.981 81.442C40.7818 84.1334 37.6529 85.6217 34.1802 85.6217C30.7114 85.6217 27.5786 84.1334 25.3794 81.442C15.5591 69.411 0 50.27 0 34.18ZM34.18 19.379C26.0003 19.379 19.371 26.0079 19.371 34.18C19.371 42.3597 25.9999 48.989 34.18 48.989C42.3601 48.989 48.989 42.3601 48.989 34.18C48.989 26.0081 42.3601 19.379 34.18 19.379Z"
    fill="black" />
</svg>
