<svg viewBox="0 0 17 23" fill="none" xmlns="http://www.w3.org/2000/svg">
  <path
    d="M3.31055 22.3486H0V0H3.31055V22.3486ZM9.10547 0C12.5287 0.000174422 15.3135 2.78469 15.3135 6.20801C15.3134 7.79611 14.7128 9.24584 13.7285 10.3447C15.4379 11.5474 16.5547 13.5111 16.5547 15.7266C16.5545 19.3773 13.5244 22.3475 9.80078 22.3477H3.31152V19.0371H9.80078C11.6993 19.0369 13.2439 17.5522 13.2441 15.7266C13.2441 13.9007 11.6994 12.4152 9.80078 12.415H9.14062C9.12891 12.4151 9.1172 12.416 9.10547 12.416H3.31152V9.10449H9.10547C10.7028 9.10432 12.0019 7.80531 12.002 6.20801C12.002 4.61063 10.7028 3.31072 9.10547 3.31055H3.31152V0H9.10547Z"
    fill="#160E0A" />
</svg>