<svg width="28" height="17" viewBox="0 0 28 17" fill="none" xmlns="http://www.w3.org/2000/svg">
  <path
    d="M11.7437 5.5105C11.6233 5.04377 11.4576 4.61467 11.2469 4.22321C11.0361 3.83176 10.7651 3.493 10.4338 3.20693C10.1026 2.92087 9.71114 2.70256 9.25946 2.552C8.82283 2.38638 8.31093 2.30357 7.72374 2.30357C6.86555 2.30357 6.12027 2.47672 5.48792 2.823C4.87062 3.16929 4.36625 3.63603 3.97479 4.22321C3.58333 4.79534 3.28974 5.45028 3.09401 6.18803C2.91334 6.92577 2.823 7.67857 2.823 8.44643C2.823 9.21429 2.91334 9.96709 3.09401 10.7048C3.28974 11.4426 3.58333 12.105 3.97479 12.6922C4.36625 13.2644 4.87062 13.7236 5.48792 14.0699C6.12027 14.4161 6.86555 14.5893 7.72374 14.5893C8.35609 14.5893 8.91317 14.4839 9.39496 14.2731C9.87675 14.0473 10.2908 13.7462 10.6371 13.3698C10.9834 12.9783 11.2544 12.5266 11.4501 12.0147C11.6458 11.5028 11.7738 10.9533 11.834 10.3661H14.5893C14.5291 11.3297 14.3183 12.2104 13.9569 13.0084C13.6106 13.8064 13.1364 14.499 12.5341 15.0861C11.9319 15.6583 11.2243 16.1024 10.4112 16.4186C9.59822 16.7348 8.70238 16.8929 7.72374 16.8929C6.51926 16.8929 5.43522 16.6745 4.47164 16.2379C3.52311 15.7862 2.71761 15.1765 2.05515 14.4086C1.39268 13.6408 0.880777 12.7449 0.519433 11.7211C0.173144 10.6973 0 9.60574 0 8.44643C0 7.30217 0.173144 6.21814 0.519433 5.19433C0.880777 4.17052 1.39268 3.27469 2.05515 2.50683C2.71761 1.73897 3.52311 1.1292 4.47164 0.67752C5.43522 0.22584 6.51926 0 7.72374 0C8.6271 0 9.47777 0.127976 10.2757 0.383928C11.0737 0.624825 11.7738 0.98617 12.3761 1.46796C12.9933 1.9347 13.4902 2.50683 13.8666 3.18435C14.243 3.86187 14.4764 4.63725 14.5667 5.5105H11.7437Z"
    fill="#160E0A" />
  <path
    d="M16.7953 0.383928H19.3699V6.3687H19.415C19.7312 5.84174 20.198 5.40511 20.8152 5.05882C21.4476 4.69748 22.1477 4.51681 22.9156 4.51681C24.1953 4.51681 25.2041 4.84804 25.9418 5.5105C26.6796 6.17297 27.0484 7.16667 27.0484 8.4916V16.5089H24.4739V9.16912C24.4438 8.2507 24.248 7.58824 23.8867 7.18172C23.5253 6.76015 22.9607 6.54937 22.1929 6.54937C21.7563 6.54937 21.3648 6.63218 21.0185 6.79779C20.6722 6.94835 20.3786 7.16667 20.1377 7.45273C19.8968 7.72374 19.7086 8.04744 19.5731 8.42385C19.4376 8.80025 19.3699 9.19923 19.3699 9.6208V16.5089H16.7953V0.383928Z"
    fill="#160E0A" />
</svg>