<svg width="24" height="24" viewBox="0 0 24 24" fill="none" xmlns="http://www.w3.org/2000/svg">
  <path fill-rule="evenodd" clip-rule="evenodd"
    d="M11.7494 2.91984e-05C18.2392 2.91984e-05 23.4988 5.25966 23.4988 11.7494C23.4988 18.2392 18.2392 23.4988 11.7494 23.4988H5.30381C4.56862 23.4988 3.95552 23.5001 3.45824 23.4598C2.94713 23.4183 2.46874 23.3276 2.01677 23.0972C1.32187 22.7422 0.756588 22.177 0.401595 21.4821C0.171216 21.0301 0.0805746 20.5505 0.0390294 20.0406C-0.00125577 19.5433 4.36836e-06 18.9302 4.36836e-06 18.195V11.7494C4.36836e-06 5.25963 5.25966 2.91984e-05 11.7494 2.91984e-05ZM6.37765 13.4275C5.82246 13.4275 5.37052 13.8795 5.37052 14.4347C5.37052 14.9911 5.82246 15.4418 6.37765 15.4418H17.1212C17.6764 15.4418 18.1283 14.9911 18.1283 14.4347C18.1283 13.8795 17.6764 13.4275 17.1212 13.4275H6.37765ZM6.37765 8.05705C5.82246 8.05705 5.37052 8.50773 5.37052 9.06418C5.37052 9.61938 5.82246 10.0713 6.37765 10.0713H17.1212C17.6764 10.0713 18.1283 9.61938 18.1283 9.06418C18.1283 8.50773 17.6764 8.05705 17.1212 8.05705H6.37765Z"
    fill="#C4C2BE" />
</svg>