<svg width="23" height="23" viewBox="0 0 23 23" fill="none" xmlns="http://www.w3.org/2000/svg">
  <path
    d="M11.0615 17.2336C11.2286 17.2251 11.3951 17.2624 11.5429 17.341C11.6918 17.42 11.8166 17.5383 11.9033 17.6828C11.9899 17.8273 12.0355 17.9928 12.0351 18.1613V18.7385C12.8583 18.6377 13.6566 18.4057 14.3994 18.0519C14.5091 17.9993 14.6284 17.9686 14.7499 17.9621C14.8716 17.9556 14.9935 17.9732 15.1083 18.0138C15.2232 18.0545 15.3284 18.1179 15.4189 18.1994C15.5094 18.281 15.5834 18.3793 15.6357 18.4894C15.6884 18.5992 15.7189 18.7184 15.7255 18.84C15.7321 18.9617 15.7144 19.0835 15.6738 19.1984C15.6332 19.3133 15.5707 19.4194 15.4892 19.5099C15.4076 19.6005 15.3083 19.6735 15.1982 19.7258C14.2086 20.1972 13.1377 20.4921 12.0351 20.5998V21.2902C12.0345 21.4577 11.9888 21.6224 11.9023 21.7658C11.8157 21.9092 11.6909 22.0261 11.5429 22.1047C11.395 22.1831 11.2287 22.2207 11.0615 22.2121C10.8943 22.2034 10.7327 22.1491 10.5937 22.0558L8.24994 20.4914C8.12381 20.4068 8.01966 20.2924 7.94818 20.1584C7.87676 20.0244 7.83984 19.8746 7.83978 19.7228C7.83978 19.5711 7.87687 19.4212 7.94818 19.2873C8.01966 19.1532 8.12378 19.038 8.24994 18.9533L10.5937 17.3888C10.7328 17.2958 10.8944 17.242 11.0615 17.2336ZM17.1865 16.2687C17.4317 16.2671 17.6671 16.3632 17.8417 16.5353C17.9286 16.6209 17.9985 16.7228 18.0458 16.8351C18.0931 16.9473 18.1174 17.0679 18.1181 17.1896C18.1188 17.3115 18.0949 17.4323 18.0488 17.5451C18.0026 17.6579 17.9355 17.7614 17.8495 17.8478C17.8077 17.89 17.7717 17.9258 17.7333 17.9631C17.646 18.0481 17.542 18.1154 17.4286 18.1603C17.3154 18.2053 17.194 18.2277 17.0722 18.2258C16.9505 18.2238 16.8304 18.1971 16.7187 18.1486C16.6069 18.1 16.5054 18.0303 16.4208 17.9426C16.2513 17.7664 16.1581 17.5298 16.162 17.2853C16.1661 17.041 16.2672 16.8084 16.4423 16.6379C16.4766 16.6046 16.51 16.5702 16.538 16.5422C16.7099 16.3692 16.9427 16.2708 17.1865 16.2687ZM4.92474 16.1603C5.0463 16.1617 5.16648 16.1868 5.27826 16.2346C5.39022 16.2825 5.49206 16.3524 5.57709 16.4396C5.61029 16.4739 5.64481 16.5074 5.67279 16.5353C5.75962 16.6209 5.82854 16.7228 5.87591 16.8351C5.92326 16.9474 5.94848 17.0678 5.94916 17.1896C5.94981 17.3115 5.92594 17.4323 5.87982 17.5451C5.83366 17.6579 5.76551 17.7604 5.67962 17.8469C5.59408 17.9337 5.49214 18.0036 5.37982 18.051C5.26762 18.0982 5.14707 18.1226 5.02533 18.1232C4.90344 18.1239 4.78266 18.1001 4.66986 18.0539C4.55721 18.0078 4.45448 17.9404 4.3681 17.8547C4.32577 17.8123 4.28932 17.7691 4.25189 17.7306C4.08148 17.5554 3.98657 17.3198 3.98919 17.0754C3.9919 16.831 4.09143 16.5974 4.26556 16.426C4.35243 16.3405 4.45531 16.2733 4.5683 16.2277C4.68136 16.1821 4.80284 16.159 4.92474 16.1603ZM2.48919 7.83709C2.64229 7.83728 2.79295 7.87572 2.92767 7.94842C3.06243 8.02116 3.17747 8.12616 3.26166 8.25408L4.82611 10.5978C4.9179 10.7373 4.97006 10.8988 4.97748 11.0656C4.98488 11.2324 4.9472 11.398 4.8681 11.5451C4.78895 11.6922 4.6716 11.8158 4.52826 11.9015C4.38497 11.9872 4.22059 12.0322 4.05365 12.0324H3.47552C3.5758 12.8582 3.80829 13.6586 4.16302 14.4035C4.26695 14.6255 4.27851 14.88 4.19525 15.1105C4.11202 15.3408 3.9411 15.5286 3.71966 15.633C3.49847 15.7374 3.24407 15.7501 3.01361 15.6681C2.78345 15.5862 2.59478 15.4168 2.48919 15.1965C2.01712 14.205 1.72138 13.1356 1.61419 12.0324H0.924742C0.757712 12.0322 0.593471 11.9873 0.450132 11.9015C0.306804 11.8158 0.18943 11.6922 0.110288 11.5451C0.031241 11.3981 -0.00649263 11.2324 0.000913462 11.0656C0.00832626 10.8989 0.0605487 10.7372 0.152281 10.5978L1.71771 8.25408C1.80186 8.12625 1.91606 8.02114 2.05072 7.94842C2.18543 7.8757 2.33611 7.83731 2.48919 7.83709ZM11.1054 7.40643C13.1392 7.40642 14.8084 9.07579 14.8085 11.1096C14.8085 13.1434 13.1393 14.8137 11.1054 14.8137C9.07152 14.8136 7.40228 13.1434 7.40228 11.1096C7.40242 9.07581 9.07161 7.40645 11.1054 7.40643ZM18.4921 6.58025C18.7129 6.47665 18.9655 6.46439 19.1952 6.54607C19.4261 6.62749 19.6155 6.79722 19.7216 7.01775C20.1929 8.00733 20.495 9.0781 20.6044 10.1808H21.2861C21.4541 10.1802 21.6193 10.2257 21.7636 10.3117C21.908 10.3978 22.027 10.521 22.1064 10.6691C22.1857 10.8173 22.2231 10.9847 22.2148 11.1525C22.2064 11.3203 22.1521 11.4827 22.0585 11.6222L20.4941 13.966C20.4095 14.092 20.2949 14.1953 20.1611 14.2668C20.0271 14.3382 19.8773 14.3761 19.7255 14.3762C19.5736 14.3762 19.424 14.3382 19.29 14.2668C19.1559 14.1953 19.0406 14.0922 18.956 13.966L17.3915 11.6222C17.2983 11.4833 17.2449 11.3216 17.2363 11.1545C17.2276 10.9873 17.2643 10.8209 17.3427 10.673C17.4213 10.525 17.5382 10.4002 17.6816 10.3137C17.825 10.2271 17.9896 10.1814 18.1572 10.1808H18.7402C18.6394 9.35761 18.4084 8.5593 18.0546 7.81658C18.0019 7.70678 17.9713 7.58761 17.9648 7.466C17.9582 7.34435 17.9759 7.22246 18.0165 7.1076C18.0572 6.99278 18.1196 6.88654 18.2011 6.79607C18.2827 6.70562 18.3821 6.63252 18.4921 6.58025ZM11.1054 9.25799C10.0721 9.25801 9.25398 10.0763 9.25384 11.1096C9.25384 12.1429 10.072 12.9611 11.1054 12.9611C12.1388 12.9611 12.957 12.1429 12.957 11.1096C12.9568 10.0763 12.1387 9.25799 11.1054 9.25799ZM17.1865 4.09295C17.3084 4.09305 17.4303 4.11733 17.5429 4.16424C17.6552 4.2111 17.7569 4.28006 17.8427 4.36639C17.8854 4.4084 17.9293 4.44408 17.9667 4.4826C18.0516 4.56985 18.1181 4.67321 18.163 4.78631C18.208 4.89959 18.2304 5.02089 18.2285 5.14275C18.2265 5.26466 18.2009 5.38543 18.1523 5.49725C18.1037 5.60895 18.0329 5.70957 17.9452 5.79412C17.8579 5.87912 17.7548 5.94638 17.6415 5.99139C17.5282 6.03639 17.407 6.05873 17.2851 6.05682C17.1632 6.0549 17.0424 6.0292 16.9306 5.98065C16.8189 5.93211 16.7183 5.86128 16.6337 5.77361C16.6005 5.73937 16.5728 5.70729 16.5449 5.67791C16.3717 5.50552 16.2738 5.27188 16.2724 5.02752C16.2711 4.783 16.3666 4.54757 16.538 4.37322C16.7087 4.19778 16.9417 4.09682 17.1865 4.09295ZM5.14056 3.99041C5.38547 3.99423 5.6192 4.0951 5.78998 4.27068C5.87498 4.35805 5.94227 4.4611 5.98724 4.5744C6.03222 4.68771 6.05462 4.80894 6.05267 4.93084C6.05071 5.0526 6.024 5.17265 5.97552 5.28436C5.92699 5.39606 5.85712 5.49765 5.76947 5.58221C5.73768 5.61299 5.70521 5.64612 5.67377 5.67791C5.50042 5.85021 5.26582 5.94735 5.02142 5.94744C4.7769 5.94744 4.54153 5.85029 4.3681 5.67791C4.19496 5.50544 4.09695 5.27094 4.09564 5.02654C4.09443 4.78229 4.19008 4.54745 4.36127 4.37322C4.40105 4.3333 4.44348 4.28973 4.48431 4.25018C4.6601 4.08044 4.89623 3.98699 5.14056 3.99041ZM11.1494 0.00115306C11.3166 0.00957476 11.4789 0.0632953 11.6181 0.156426L13.9619 1.72088C14.0879 1.80545 14.1912 1.91999 14.2626 2.05389C14.3341 2.18795 14.371 2.33848 14.371 2.49041C14.371 2.64217 14.334 2.79204 14.2626 2.92596C14.1912 3.05986 14.0879 3.17439 13.9619 3.25897L11.6181 4.82342C11.4791 4.91499 11.3176 4.96709 11.1513 4.97479C10.9851 4.98244 10.8196 4.94566 10.6728 4.86736C10.526 4.78903 10.4035 4.67181 10.3173 4.52947C10.2311 4.38713 10.1849 4.22419 10.1835 4.05779V3.47283C9.35764 3.5731 8.55742 3.80652 7.81244 4.16131C7.70268 4.21401 7.58343 4.24455 7.46185 4.25115C7.34028 4.25771 7.21825 4.23993 7.10345 4.1994C6.98854 4.15876 6.88246 4.09546 6.79193 4.01385C6.70146 3.93226 6.6274 3.83385 6.57513 3.72381C6.47127 3.50181 6.45966 3.24731 6.54291 3.01678C6.62615 2.78635 6.79784 2.59873 7.01947 2.49432C8.01104 2.02207 9.08021 1.71948 10.1835 1.61053V0.928887C10.1825 0.761077 10.227 0.595773 10.3124 0.451348C10.3979 0.307098 10.5205 0.188388 10.6679 0.108575C10.8156 0.0299503 10.9822 -0.00719954 11.1494 0.00115306Z"
    fill="#C4C2BE" />
</svg>