<svg width="20" height="20" viewBox="0 0 20 20" fill="none" xmlns="http://www.w3.org/2000/svg">
  <path
    d="M16.707 0C18.3353 0 19.6562 1.31996 19.6562 2.94824C19.6562 4.3514 18.6753 5.52533 17.3623 5.82324V8.92676C17.3623 9.28862 17.0689 9.58203 16.707 9.58203C16.3454 9.58185 16.0518 9.28851 16.0518 8.92676V5.82324C15.8601 5.77971 15.6755 5.71755 15.5 5.63867L5.63867 15.5C5.80429 15.8684 5.89643 16.2769 5.89648 16.707C5.89648 18.3354 4.57659 19.6562 2.94824 19.6562C1.31996 19.6562 0 18.3353 0 16.707C0.000198165 15.0789 1.32008 13.7589 2.94824 13.7588C3.66806 13.7588 4.32794 14.0168 4.83984 14.4453L14.4453 4.83984C14.0168 4.32794 13.7588 3.66806 13.7588 2.94824C13.7589 1.32008 15.0789 0.000198165 16.707 0ZM16.707 11.6299C17.0689 11.6299 17.3623 11.9233 17.3623 12.2852V16.0518H19.001C19.2658 16.0519 19.5041 16.2124 19.6055 16.457C19.7068 16.7018 19.6512 16.9836 19.4639 17.1709L17.1709 19.4639C16.915 19.7197 16.5 19.7197 16.2441 19.4639L13.9512 17.1709C13.7639 16.9836 13.7074 16.7018 13.8086 16.457C13.91 16.2123 14.1491 16.0518 14.4141 16.0518H16.0518V12.2852C16.0518 11.9234 16.3454 11.6301 16.707 11.6299ZM15.9961 17.3623L16.0518 17.4189V17.3623H15.9961ZM17.3623 17.4189L17.4189 17.3623H17.3623V17.4189ZM2.94824 0C4.57655 0 5.89642 1.31996 5.89648 2.94824C5.89648 4.35138 4.91649 5.52527 3.60352 5.82324V8.18945C3.60352 8.55132 3.3101 8.84473 2.94824 8.84473C2.58645 8.84466 2.29297 8.55127 2.29297 8.18945V5.82324C0.980115 5.52519 0 4.3513 0 2.94824C6.60167e-05 1.32 1.32 6.60165e-05 2.94824 0Z"
    fill="#C4C2BE" />
</svg>