<svg width="31" height="22" viewBox="0 0 31 22" fill="none" xmlns="http://www.w3.org/2000/svg">
  <path d="M0 21.8182V0H3.2919V9.48153H14.169V0H17.4716V21.8182H14.169V12.3047H3.2919V21.8182H0Z"
    fill="#C4C2BE" />
  <path
    d="M21.0021 21.8182V20.2273L25.924 15.1278C26.4496 14.5739 26.8828 14.0885 27.2237 13.6719C27.5694 13.2505 27.8274 12.8504 27.9979 12.4716C28.1683 12.0928 28.2536 11.6903 28.2536 11.2642C28.2536 10.7812 28.1399 10.3646 27.9126 10.0142C27.6854 9.65909 27.3752 9.38684 26.9822 9.19744C26.5893 9.00331 26.1465 8.90625 25.6541 8.90625C25.1333 8.90625 24.6787 9.01278 24.2905 9.22585C23.9022 9.43892 23.6039 9.73958 23.3956 10.1278C23.1873 10.5161 23.0831 10.9706 23.0831 11.4915H20.9879C20.9879 10.6061 21.1915 9.83191 21.5987 9.16903C22.0059 8.50616 22.5646 7.99242 23.2749 7.62784C23.9851 7.25852 24.7924 7.07386 25.6967 7.07386C26.6106 7.07386 27.4155 7.25616 28.1115 7.62074C28.8123 7.98059 29.3591 8.47301 29.7521 9.09801C30.1451 9.71828 30.3416 10.419 30.3416 11.2003C30.3416 11.7401 30.2398 12.268 30.0362 12.7841C29.8374 13.3002 29.4893 13.8755 28.9922 14.5099C28.495 15.1397 27.8037 15.9044 26.9183 16.804L24.0277 19.8295V19.9361H30.576V21.8182H21.0021Z"
    fill="#C4C2BE" />
</svg>