<svg width="32" height="23" viewBox="0 0 32 23" fill="none" xmlns="http://www.w3.org/2000/svg">
  <path
    d="M26.0661 22.017C25.0907 22.017 24.2195 21.849 23.4524 21.5128C22.6901 21.1766 22.0864 20.7102 21.6413 20.1136C21.201 19.5123 20.9643 18.8163 20.9311 18.0256H23.1612C23.1896 18.4564 23.334 18.8305 23.5945 19.1477C23.8596 19.4602 24.2053 19.7017 24.6314 19.8722C25.0575 20.0426 25.531 20.1278 26.0518 20.1278C26.6248 20.1278 27.1314 20.0284 27.5717 19.8295C28.0168 19.6307 28.3648 19.3537 28.6158 18.9986C28.8667 18.6387 28.9922 18.2244 28.9922 17.7557C28.9922 17.268 28.8667 16.8395 28.6158 16.4702C28.3696 16.0961 28.0073 15.8026 27.5291 15.5895C27.0556 15.3764 26.4827 15.2699 25.8104 15.2699H24.5817V13.4801H25.8104C26.3501 13.4801 26.8236 13.383 27.2308 13.1889C27.6428 12.9948 27.9647 12.7249 28.1967 12.3793C28.4287 12.0289 28.5447 11.6193 28.5447 11.1506C28.5447 10.7008 28.4429 10.3101 28.2393 9.97869C28.0405 9.64252 27.7564 9.37974 27.3871 9.19034C27.0225 9.00095 26.5916 8.90625 26.0945 8.90625C25.621 8.90625 25.1783 8.99384 24.7663 9.16903C24.3591 9.33949 24.0277 9.5857 23.772 9.90767C23.5163 10.2249 23.379 10.6061 23.3601 11.0511H21.2365C21.2602 10.2652 21.4922 9.57386 21.9325 8.97727C22.3776 8.38068 22.9647 7.9143 23.6939 7.57812C24.4231 7.24195 25.2327 7.07386 26.1229 7.07386C27.0556 7.07386 27.8606 7.25616 28.5376 7.62074C29.2195 7.98059 29.745 8.46117 30.1143 9.0625C30.4884 9.66383 30.6731 10.322 30.6683 11.0369C30.6731 11.8513 30.4458 12.5426 29.9865 13.1108C29.532 13.679 28.9259 14.0601 28.1683 14.2543V14.3679C29.1342 14.5147 29.8823 14.8982 30.4126 15.5185C30.9477 16.1387 31.2128 16.9081 31.2081 17.8267C31.2128 18.6269 30.9903 19.3442 30.5405 19.9787C30.0954 20.6132 29.487 21.1127 28.7152 21.4773C27.9434 21.8371 27.0604 22.017 26.0661 22.017Z"
    fill="#C4C2BE" />
  <path d="M0 21.8182V0H3.2919V9.48153H14.169V0H17.4716V21.8182H14.169V12.3047H3.2919V21.8182H0Z"
    fill="#C4C2BE" />
</svg>