<svg width="13" height="21" viewBox="0 0 13 21" fill="none" xmlns="http://www.w3.org/2000/svg">
  <path
    d="M4.87173 13.1542C4.85071 12.4407 4.97511 11.7304 5.23736 11.0665C5.42419 10.5963 5.73877 10.1878 6.14556 9.88702C6.50726 9.64326 6.90042 9.3995 7.32503 9.15574L8.5045 8.50703C8.91282 8.28631 9.24253 7.94424 9.44808 7.52807C9.69068 7.02104 9.80413 6.46189 9.77834 5.9004C9.79636 5.45638 9.71459 5.01398 9.53904 4.60574C9.3635 4.1975 9.09865 3.83381 8.76399 3.54145C8.06446 2.92809 7.158 2.60345 6.22812 2.63326C5.75178 2.61639 5.27714 2.69892 4.83445 2.87559C4.39176 3.05226 3.99071 3.3192 3.65687 3.6594C3.32915 3.99373 3.07571 4.39348 2.91311 4.8325C2.75051 5.27152 2.68242 5.73992 2.71329 6.20706H0.0123002C-0.0414623 5.39363 0.081446 4.5782 0.372586 3.81676C0.663727 3.05531 1.1162 2.36589 1.69895 1.79583C2.29142 1.20351 2.99895 0.738855 3.77792 0.430514C4.55689 0.122174 5.39076 -0.023311 6.22812 0.00303334C7.85956 -0.0364339 9.44062 0.569711 10.6276 1.68968C11.2129 2.22095 11.677 2.87197 11.9884 3.59853C12.2998 4.32509 12.4511 5.11015 12.4321 5.9004C12.4615 6.7647 12.292 7.6242 11.9368 8.41268C11.6768 9.00711 11.2712 9.52637 10.7573 9.9224C10.3073 10.234 9.83856 10.5176 9.35373 10.7716C8.91589 11.0017 8.5177 11.3003 8.17425 11.6562C8.00954 11.8287 7.88089 12.0322 7.79583 12.255C7.71077 12.4778 7.67101 12.7153 7.67887 12.9536V14.6875H4.87173V13.1542ZM5.03685 20.231C4.77694 19.9743 4.5993 19.6461 4.52657 19.2881C4.45384 18.9302 4.4893 18.5586 4.62845 18.2209C4.7676 17.8831 5.00413 17.5944 5.30791 17.3916C5.6117 17.1887 5.96899 17.0809 6.33428 17.0818C6.63618 17.0826 6.93326 17.1576 7.19931 17.3003C7.46537 17.4429 7.69223 17.6489 7.85989 17.9C8.02754 18.1511 8.13084 18.4395 8.16068 18.7399C8.19051 19.0404 8.14596 19.3435 8.03096 19.6227C7.91596 19.9018 7.73404 20.1484 7.50124 20.3406C7.26844 20.5328 6.99192 20.6648 6.69606 20.7249C6.4002 20.785 6.09409 20.7714 5.80474 20.6853C5.51539 20.5991 5.25167 20.4431 5.03685 20.231Z"
    fill="#160E0A" />
</svg>