<svg width="23" height="23" viewBox="0 0 23 23" fill="none" xmlns="http://www.w3.org/2000/svg">
  <path
    d="M12.8674 0.0926601C9.43958 -0.339596 6.05934 0.753435 3.57387 3.10058C1.0884 5.44773 -0.202604 8.75593 0.0259149 12.178C0.404139 17.7195 4.85277 22.2515 10.3822 22.7264C10.7188 22.7568 11.0542 22.7681 11.3908 22.7681C12.7416 22.7681 14.0564 22.5339 15.3229 22.0657L14.4944 19.8143C13.2516 20.2702 11.9369 20.4503 10.5917 20.331C6.23311 19.9584 2.72665 16.3811 2.42724 12.0159C2.2415 9.31427 3.26135 6.70258 5.22451 4.85339C7.18767 3.00391 9.86549 2.13378 12.5671 2.4816C16.6193 2.99829 19.8794 6.32349 20.3117 10.3939C20.4558 11.7683 20.306 13.1079 19.8558 14.3799C19.7781 14.6084 19.5676 14.7637 19.3335 14.7637C18.3553 14.7637 17.5628 13.9656 17.5628 12.9863V11.3833C17.5628 7.97946 14.7948 5.20553 11.385 5.20553C7.97524 5.20553 5.20722 7.97356 5.20722 11.3833C5.20722 14.7931 7.97524 17.5611 11.385 17.5611C13.2165 17.5611 14.8609 16.7563 15.9957 15.4843C16.7578 16.5053 17.9713 17.1649 19.3333 17.1649C20.5817 17.1649 21.6984 16.3668 22.1194 15.1837C22.6901 13.5684 22.8882 11.8755 22.7013 10.1407C22.1486 4.9773 18.0128 0.751571 12.8675 0.096559L12.8674 0.0926601ZM11.3849 15.1562C9.30126 15.1562 7.6084 13.4632 7.6084 11.3797C7.6084 9.29625 9.3014 7.60325 11.3849 7.60325C13.4683 7.60325 15.1613 9.29625 15.1613 11.3797C15.1613 13.4632 13.4683 15.1562 11.3849 15.1562Z"
    fill="#160E0A" />
</svg>