<svg width="21" height="23" viewBox="0 0 21 23" fill="none" xmlns="http://www.w3.org/2000/svg">
  <path
    d="M7.13184 2.09766C7.13184 3.71708 8.44897 5.03403 10.0684 5.03418C11.6879 5.03418 13.0059 3.71702 13.0059 2.09766H16.3613C18.4429 2.09766 20.1365 3.79137 20.1367 5.87305V14.6836H15.9414C13.8598 14.6838 12.1661 16.3772 12.166 18.459V22.6543H3.77539C1.69379 22.6542 0.000100005 20.9606 0 18.8789V5.87305C0.000116586 3.79145 1.69366 2.09777 3.77539 2.09766H7.13184ZM13.8447 22.1621V18.459C13.8447 17.3023 14.7848 16.3616 15.9414 16.3613H19.6455L13.8447 22.1621ZM10.0684 0C11.2273 0 12.166 0.938716 12.166 2.09766C12.166 3.25659 11.2273 4.19531 10.0684 4.19531C8.90953 4.19519 7.97072 3.25651 7.9707 2.09766C7.9707 0.938789 8.90952 0.000119375 10.0684 0Z"
    fill="#C4C2BE" />
</svg>