<svg width="19" height="19" viewBox="0 0 19 19" fill="none" xmlns="http://www.w3.org/2000/svg">
  <path fill-rule="evenodd" clip-rule="evenodd"
    d="M5.13109 0H17.7256C18.2408 0 18.6585 0.41769 18.6585 0.932926C18.6585 1.44816 18.2408 1.86585 17.7256 1.86585H15.3V17.7256C15.3 18.2408 14.8823 18.6585 14.3671 18.6585C13.8518 18.6585 13.4341 18.2408 13.4341 17.7256V1.86585H8.58292V17.7256C8.58292 18.2408 8.16525 18.6585 7.64999 18.6585C7.13475 18.6585 6.71707 18.2408 6.71707 17.7256V10.2622H5.13109C2.29726 10.2622 0 7.96495 0 5.13109C0 2.29726 2.29726 0 5.13109 0ZM6.71707 8.39633V1.86585H5.13109C3.32775 1.86585 1.86585 3.32775 1.86585 5.13109C1.86585 6.93444 3.32775 8.39633 5.13109 8.39633H6.71707Z"
    fill="#C4C2BE" />
</svg>