<svg width="31" height="27" viewBox="0 0 31 27" fill="none" xmlns="http://www.w3.org/2000/svg">
  <path
    d="M30.1522 13.1993V15.0761H23.2603C24.0602 16.2145 24.5218 17.5067 24.5218 18.8605C24.5218 20.9527 23.4449 22.9526 21.5681 24.3679C19.8143 25.6909 17.5375 26.3986 15.1069 26.3986C12.6762 26.3986 10.3994 25.6909 8.64569 24.3679C6.76887 22.9526 5.692 20.9527 5.692 18.8605H9.47641C9.41488 20.8912 11.9994 22.6142 15.0761 22.6142C18.1529 22.6142 20.7373 20.8912 20.7373 18.8605C20.7373 16.8299 18.1529 15.0761 15.0761 15.0761H0V13.1993H8.83029C8.76876 13.1378 8.70722 13.107 8.61492 13.0455C6.7381 11.6301 5.66123 9.63025 5.66123 7.53806C5.66123 5.44586 6.7381 3.44597 8.61492 2.03066C10.3687 0.707654 12.6455 0 15.0761 0C17.5067 0 19.7835 0.707654 21.5373 2.03066C23.4141 3.44597 24.491 5.44586 24.491 7.53806H20.7373C20.7373 5.5074 18.1529 3.78441 15.0761 3.78441C11.9994 3.78441 9.41488 5.5074 9.41488 7.53806C9.41488 9.56871 11.9994 11.3225 15.0761 11.3225C17.4144 11.3225 19.5989 11.9994 21.3219 13.1993H30.1522Z"
    fill="#C4C2BE" />
</svg>