<svg width="25" height="23" viewBox="0 0 25 23" fill="none" xmlns="http://www.w3.org/2000/svg">
  <path
    d="M8.74295 0.000519571C7.92011 -0.0158245 7.24587 0.354838 7.1604 0.91335L6.55471 4.87071L2.55191 4.87524C1.9062 4.87599 1.38683 5.67348 1.38794 6.66357C1.38905 7.65366 1.90974 8.4506 2.55545 8.44988L6.008 8.44584L5.15621 14.009L1.16296 14.0141C0.517252 14.0148 -0.00110853 14.8118 1.78035e-06 15.8019C0.00110951 16.792 0.52128 17.5889 1.16699 17.5882L4.60947 17.5841L4.0885 20.9863C3.99082 21.6246 4.69995 22.2587 5.67862 22.4085C6.6573 22.5583 7.52357 22.1653 7.62125 21.527L8.22493 17.5802L13.8532 17.5736L13.3312 20.9864C13.2335 21.6247 13.9426 22.2588 14.9213 22.4086C15.9 22.5584 16.7668 22.1653 16.8645 21.527L17.4702 17.5697L21.473 17.5651C22.1187 17.5644 22.638 16.7674 22.6369 15.7773C22.6358 14.7873 22.1151 13.9903 21.4694 13.991L18.0169 13.9951L18.8687 8.43137L22.8619 8.42684C23.5076 8.42609 24.026 7.6286 24.0249 6.63851C24.0238 5.64842 23.5036 4.852 22.8579 4.85272L19.4154 4.85675L19.9364 1.45404C20.034 0.815763 19.3254 0.181646 18.3468 0.0318575C17.3681 -0.117926 16.5013 0.275127 16.4036 0.913419L15.7999 4.86019L10.1717 4.86674L10.6937 1.45396C10.7914 0.815683 10.0822 0.181566 9.10355 0.0317774C8.98121 0.0130558 8.86051 0.00285381 8.74295 0.000519571ZM15.2522 8.43527L14.4004 13.999L8.7727 14.0055L9.62449 8.44183L15.2522 8.43527Z"
    fill="#C4C2BE" />
</svg>