<svg width="23" height="21" viewBox="0 0 23 21" fill="none" xmlns="http://www.w3.org/2000/svg">
  <path
    d="M0.167433 3.99071C-0.0734143 3.7232 -0.0520825 3.31082 0.216312 3.06998C0.258082 3.03265 0.303408 3.00066 0.3514 2.97666L5.63839 0.0908583C5.85969 -0.0300091 6.13608 -0.0388957 6.3547 0.116631L12.8505 4.74338L12.8496 4.74427C12.9385 4.80737 13.0131 4.89357 13.062 4.99845L15.5772 10.3878C15.6065 10.442 15.6278 10.5007 15.6403 10.5629L16.5948 15.1096C16.6214 15.2073 16.6259 15.3131 16.6028 15.4188C16.5272 15.7708 16.1797 15.9947 15.8278 15.9183C13.9801 15.5193 13.4255 14.1222 12.8603 12.701C12.488 11.7625 12.1085 10.8098 11.2908 10.3574L8.29401 8.6999L7.45683 9.12027L8.02828 10.6036L8.03983 10.6329C8.97212 13.1117 7.36172 14.5336 7.3564 14.5389L7.32529 14.5638C7.04356 14.7877 6.63385 14.7406 6.40991 14.4589L1.33609 8.0698C1.23122 7.95427 1.16812 7.80052 1.16812 7.63254V5.10599L0.165647 3.98975L0.167433 3.99071ZM2.38925 19.0119C2.02844 19.0119 1.73604 18.7195 1.73604 18.3596C1.73604 17.9988 2.02844 17.7064 2.38925 17.7064H9.92387C11.0934 17.7064 11.9582 18.0877 12.8176 18.4662C13.5428 18.7853 14.2654 19.1035 15.1356 19.1035C16.0332 19.1035 16.6802 18.7604 17.2978 18.4334C17.9999 18.061 18.6691 17.7064 19.6299 17.7064H21.6322C21.993 17.7064 22.2854 17.9988 22.2854 18.3596C22.2854 18.7204 21.993 19.0119 21.6322 19.0119H19.6299C18.9873 19.0119 18.4576 19.2928 17.904 19.586C17.1459 19.9877 16.3505 20.409 15.1346 20.409C13.9944 20.409 13.1439 20.0349 12.2907 19.6589C11.5575 19.3363 10.8208 19.0119 9.92228 19.0119H2.38766L2.38925 19.0119ZM2.38925 16.7937C2.02844 16.7937 1.73604 16.5013 1.73604 16.1413C1.73604 15.7805 2.02844 15.4881 2.38925 15.4881H9.92387C11.0934 15.4881 11.9582 15.8694 12.8176 16.248C13.5428 16.567 14.2654 16.8852 15.1356 16.8852C16.0332 16.8852 16.6802 16.5421 17.2978 16.2151C17.999 15.8436 18.6691 15.4881 19.6299 15.4881H21.6322C21.993 15.4881 22.2854 15.7805 22.2854 16.1413C22.2854 16.5021 21.993 16.7937 21.6322 16.7937H19.6299C18.9873 16.7937 18.4576 17.0745 17.904 17.3678C17.1459 17.7695 16.3505 18.1916 15.1346 18.1916C13.9944 18.1916 13.1439 17.8175 12.2907 17.4415C11.5575 17.1189 10.8208 16.7936 9.92228 16.7936H2.38766L2.38925 16.7937Z"
    fill="#C4C2BE" />
</svg>