<svg width="315" height="276" viewBox="0 0 315 276" fill="none" xmlns="http://www.w3.org/2000/svg">
<path d="M182.698 2.03783C209.194 -5.74094 236.98 9.43237 244.758 35.9283C248.46 48.5358 246.96 61.433 241.521 72.33C242.094 72.1324 242.674 71.9459 243.261 71.7734C263.644 65.7893 285.02 77.4624 291.005 97.846C292.11 101.61 292.61 105.408 292.567 109.137C301.662 115.419 308.745 124.741 312.102 136.174C319.881 162.67 304.707 190.455 278.211 198.234C274.302 199.382 270.364 200.029 266.467 200.214C262.754 217.586 249.88 232.424 231.639 237.78C220.67 241 209.481 240.283 199.581 236.461C195.805 253.735 182.964 268.468 164.802 273.8C145.769 279.388 126.07 273.133 113.601 259.344C109.349 263.329 104.125 266.406 98.1519 268.16C78.9328 273.803 58.8335 263.747 51.5833 245.494C29.3567 246.208 8.593 231.921 2.03764 209.592C-2.33135 194.71 0.540801 179.422 8.5925 167.5C6.57124 164.299 4.95477 160.767 3.83536 156.954C-2.65564 134.844 10.0061 111.658 32.1161 105.166C32.6272 105.016 33.1398 104.88 33.6518 104.75C32.7245 102.792 31.9363 100.737 31.3068 98.593C24.816 76.4831 37.4779 53.2978 59.5878 46.8067C75.3687 42.1737 91.6957 47.299 102.111 58.6515C106.861 47.6623 116.282 38.788 128.667 35.152C135.615 33.1121 142.669 32.9652 149.279 34.4073C154.249 19.3217 166.306 6.85052 182.698 2.03783Z" fill="#F5F2ED"/>
</svg>
