<svg viewBox="0 0 8 10" fill="none" xmlns="http://www.w3.org/2000/svg">
  <path
    d="M4.85006 6.3143V9.78237C4.85006 9.85838 4.89617 9.92567 4.96595 9.95558C4.98963 9.96555 5.01331 9.96929 5.03698 9.96929C5.08558 9.96929 5.13294 9.9506 5.16908 9.91446L7.46201 7.62152C7.49691 7.58663 7.51685 7.53928 7.51685 7.48943V3.9603C7.51685 2.04495 5.98531 0.41871 3.79332 0.00373848C3.77088 -0.00124616 3.74721 -0.00124616 3.72353 0.00373848C1.53153 0.41871 0 2.04495 0 3.9603V7.48943C0 7.53928 0.0199386 7.58663 0.0548312 7.62152L2.34777 9.91446C2.40135 9.96804 2.48111 9.98424 2.55089 9.95558C2.62068 9.92692 2.66679 9.85838 2.66679 9.78237V6.3143C2.66679 6.29561 2.66429 6.27691 2.65806 6.25822L2.08234 4.40269L3.50171 5.08683C3.52664 5.09929 3.5553 5.10552 3.58271 5.10552H3.93538C3.96404 5.10552 3.99145 5.09929 4.01638 5.08683L5.43576 4.40269L4.86003 6.25822C4.85504 6.27567 4.85131 6.29436 4.85131 6.3143H4.85006Z"
    fill="#C4C2BE" />
</svg>
