<svg width="19" height="19" viewBox="0 0 19 19" fill="none" xmlns="http://www.w3.org/2000/svg">
  <g clip-path="url(#clip0_132_3113)">
    <path
      d="M18.2121 9.38833C18.2121 8.63319 18.1508 8.08214 18.0182 7.51068H9.39526V10.919H14.4568C14.3547 11.766 13.8037 13.0416 12.5791 13.8988L12.5619 14.0129L15.2884 16.125L15.4773 16.1439C17.212 14.5417 18.2121 12.1844 18.2121 9.38833Z"
      fill="#4285F4" />
    <path
      d="M9.39527 18.3685C11.875 18.3685 13.9567 17.552 15.4773 16.1438L12.5791 13.8987C11.8036 14.4396 10.7627 14.8172 9.39527 14.8172C6.96657 14.8172 4.90524 13.2151 4.17043 11.0007L4.06272 11.0098L1.22775 13.2038L1.19067 13.3069C2.70095 16.307 5.80319 18.3685 9.39527 18.3685Z"
      fill="#34A853" />
    <path
      d="M4.17044 11.0007C3.97656 10.4292 3.86435 9.81691 3.86435 9.18425C3.86435 8.55152 3.97656 7.93927 4.16024 7.36781L4.1551 7.2461L1.2846 5.01685L1.19069 5.06152C0.568228 6.30651 0.21106 7.70458 0.21106 9.18425C0.21106 10.6639 0.568228 12.0619 1.19069 13.3069L4.17044 11.0007Z"
      fill="#FBBC05" />
    <path
      d="M9.39527 3.55121C11.1198 3.55121 12.2831 4.29615 12.9465 4.91868L15.5385 2.3879C13.9466 0.908222 11.875 0 9.39527 0C5.80319 0 2.70095 2.06133 1.19067 5.06149L4.16023 7.36778C4.90524 5.15337 6.96657 3.55121 9.39527 3.55121Z"
      fill="#EB4335" />
  </g>
  <defs>
    <clipPath id="clip0_132_3113">
      <rect width="18.4318" height="18.4318" fill="white" />
    </clipPath>
  </defs>
</svg>