<svg width="20" height="18" viewBox="0 0 20 18" fill="none" xmlns="http://www.w3.org/2000/svg">
  <path
    d="M19.4654 4.66181L17.0927 3.34083L17.0925 3.34061L18.505 1.02032L16.2075 1.62633C15.1278 0.324984 13.3574 -0.310804 11.6148 0.14894C9.22098 0.780413 7.79191 3.23296 8.42339 5.62703C8.43051 5.65422 8.44108 5.67967 8.44863 5.70642L0.539784 5.16297C0.354462 7.86211 2.48684 10.32 5.63968 11.4277L0 14.4105C2.98672 15.0968 6.82086 15.0096 10.8265 13.9989V15.6713L10.2829 15.9524C10.0184 16.0892 9.91459 16.4147 10.0516 16.6792C10.1884 16.9439 10.5139 17.0471 10.7784 16.9105L11.4256 16.5759L13.4816 17.1446C13.53 17.1582 13.5781 17.1644 13.6258 17.1644C13.8624 17.1644 14.0795 17.0076 14.1453 16.7688C14.2247 16.4816 14.0564 16.1845 13.7694 16.1051L11.905 15.5893V13.6783C15.4395 12.3793 17.6601 8.89658 17.4191 5.20138L19.4654 4.66181ZM13.1578 1.68652C13.8527 1.50315 14.5647 1.9178 14.7483 2.6127C14.7785 2.72726 14.7908 2.84203 14.7899 2.95508C14.4225 2.57667 13.8678 2.40127 13.3211 2.54539C12.8338 2.67397 12.4666 3.02735 12.2983 3.46445C12.2722 3.40425 12.2489 3.34212 12.2314 3.27654C12.0478 2.58163 12.4627 1.86969 13.1578 1.68652Z"
    fill="currentColor" />
</svg>